<svg width="118" height="36" viewBox="0 0 118 36" fill="none" xmlns="http://www.w3.org/2000/svg">
<g id="_&#235;&#160;&#136;&#236;&#157;&#180;&#236;&#150;&#180;_2" clip-path="url(#clip0_207_108)">
<path id="Vector" d="M15.874 8.77051V23.0251C15.874 25.4877 13.6449 27.4838 10.8971 27.4838C9.98121 27.4838 9.23633 28.1509 9.23633 28.97V14.8889C9.23633 12.5132 10.5716 10.7503 14.0367 10.5876C14.925 10.5767 15.4988 10.3055 15.6533 9.60582L15.8685 8.77593L15.874 8.77051Z" fill="white"/>
<path id="Vector_2" d="M27.7979 8.77051V23.0251C27.7979 25.4877 25.5687 27.4838 22.821 27.4838C21.905 27.4838 21.1602 28.1509 21.1602 28.97V14.8889C21.1602 12.5132 22.4954 10.7503 25.9605 10.5876C26.8488 10.5767 27.4227 10.3055 27.5772 9.60582L27.7923 8.77593L27.7979 8.77051Z" fill="white"/>
<path id="Vector_3" d="M44.0303 8.77051V23.0251C44.0303 25.4877 41.8012 27.4838 39.0534 27.4838C38.1375 27.4838 37.3926 28.1509 37.3926 28.97V14.8889C37.3926 12.5132 38.7278 10.7503 42.1929 10.5876C43.0813 10.5767 43.6551 10.3055 43.8096 9.60582L44.0248 8.77593L44.0303 8.77051Z" fill="white"/>
<path id="Vector_4" d="M3.02918 18.6803C4.70215 18.6803 6.05836 17.3471 6.05836 15.7025C6.05836 14.0578 4.70215 12.7246 3.02918 12.7246C1.35621 12.7246 0 14.0578 0 15.7025C0 17.3471 1.35621 18.6803 3.02918 18.6803Z" fill="white"/>
<path id="Vector_5" d="M28.2224 31.4007C28.2224 33.0442 26.8651 34.3786 25.1932 34.3786C23.5214 34.3786 22.1641 33.0442 22.1641 31.4007C22.1641 29.7572 23.5214 28.4229 25.1932 28.4229C26.8651 28.4229 28.2224 29.7572 28.2224 31.4007Z" fill="white"/>
<path id="Vector_6" d="M0.148438 15.7028V15.5618C0.148438 11.8245 3.22176 8.79785 7.01237 8.79785H15.984H16.4365C19.107 8.79785 21.3196 10.9295 21.3196 13.5602V18.2521" stroke="white" stroke-width="0.5" stroke-miterlimit="10"/>
<path id="Vector_7" d="M36.8846 5.9557C38.5576 5.9557 39.9138 4.62247 39.9138 2.97785C39.9138 1.33323 38.5576 0 36.8846 0C35.2117 0 33.8555 1.33323 33.8555 2.97785C33.8555 4.62247 35.2117 5.9557 36.8846 5.9557Z" fill="white"/>
<path id="Vector_8" d="M36.8848 0.146484H37.0282C40.8299 0.146484 43.9087 3.16773 43.9087 6.89411V16.1531C43.9087 18.7784 41.7403 20.9535 39.0642 20.9535" stroke="white" stroke-width="0.5" stroke-miterlimit="10"/>
<path id="Vector_9" d="M25.3749 8.79785H29.2593C31.7974 8.79785 33.861 10.9295 33.861 13.5548V29.6808C33.861 33.0763 31.1739 35.8534 27.8964 35.8534H27.0853C24.4755 35.8534 22.3457 33.6458 22.3457 30.9446" stroke="white" stroke-width="0.5" stroke-miterlimit="10"/>
<path id="Vector_10" d="M111.947 13.2679C111.947 11.6244 113.305 10.29 114.976 10.29C116.648 10.29 118.006 11.6244 118.006 13.2679C118.006 14.9114 116.648 16.2457 114.976 16.2457C113.305 16.2457 111.947 14.9114 111.947 13.2679Z" fill="white"/>
<path id="Vector_11" d="M106.309 28.9652V14.9764C106.309 11.5809 108.996 8.80371 112.273 8.80371H113.084C115.694 8.80371 117.824 11.0113 117.824 13.7126" stroke="white" stroke-width="0.5" stroke-miterlimit="10"/>
<path id="Vector_12" d="M35.8145 28.9648H44.9737" stroke="white" stroke-width="0.5" stroke-miterlimit="10"/>
<path id="Vector_13" d="M86.5547 28.9648H94.0532" stroke="white" stroke-width="0.5" stroke-miterlimit="10"/>
<path id="Vector_14" d="M53.4102 28.9648H60.8038" stroke="white" stroke-width="0.5" stroke-miterlimit="10"/>
<path id="Vector_15" d="M46.5957 10.4307H55.7494" stroke="white" stroke-width="0.5" stroke-miterlimit="10"/>
<path id="Vector_16" d="M51.2589 10.4307L60.6168 28.9649H53.4108L47.1925 16.4786C46.6407 15.0086 47.4242 13.3814 48.9305 12.8661L49.9513 12.519C50.8396 12.2152 51.3859 11.3419 51.2589 10.4307Z" fill="white"/>
<path id="Vector_17" d="M60.666 28.9215L66.763 10.4307" stroke="white" stroke-width="0.5" stroke-miterlimit="10"/>
<path id="Vector_18" d="M62.2988 10.4736H68.8814" stroke="white" stroke-width="0.5" stroke-miterlimit="10"/>
<path id="Vector_19" d="M66.7191 10.4307H64.3906C65.1245 10.8212 65.6266 11.5263 65.7535 12.34L65.8583 13.0397" fill="white"/>
<path id="Vector_20" d="M86.5547 10.5986H96.9278" stroke="white" stroke-width="0.5" stroke-miterlimit="10"/>
<path id="Vector_21" d="M90.2738 10.5557H88.6406C89.3745 10.9462 89.9649 11.6513 90.0862 12.465L90.1911 13.1647" fill="white"/>
<path id="Vector_22" d="M80.2819 27.0935C74.9132 27.0935 74.4442 21.7616 74.4442 20.0475H86.7044C86.7044 20.0475 87.4493 10.3438 77.4568 10.3438C67.4644 10.3438 66.7637 18.3552 66.7637 19.7438C66.7637 21.1324 67.7844 29.0624 77.1479 29.0624C85.6119 29.0624 86.7209 22.5155 86.7209 22.5155C86.7209 22.5155 85.3746 27.0989 80.2819 27.0989V27.0935ZM77.4127 10.5553C80.8723 10.7668 80.3205 19.8414 80.3205 19.8414H74.5049C74.5049 19.8414 73.9531 10.7668 77.4127 10.5553Z" fill="white"/>
<path id="Vector_23" d="M106.307 28.9652H99.7081L90.3281 10.5557H96.9272L106.307 28.9652Z" fill="white"/>
<path id="Vector_24" d="M90.3281 10.5557V28.9652" stroke="white" stroke-width="0.5" stroke-miterlimit="10"/>
</g>
<defs>
<clipPath id="clip0_207_108">
<rect width="118" height="36" fill="white"/>
</clipPath>
</defs>
</svg>
