<svg width="118" height="36" viewBox="0 0 118 36" fill="none" xmlns="http://www.w3.org/2000/svg">
<g clip-path="url(#clip0_168_53)">
<path d="M15.876 8.77051V23.0251C15.876 25.4877 13.6469 27.4838 10.8991 27.4838C9.98316 27.4838 9.23828 28.1509 9.23828 28.97V14.8889C9.23828 12.5132 10.5735 10.7503 14.0386 10.5876C14.927 10.5767 15.5008 10.3055 15.6553 9.60582L15.8705 8.77593L15.876 8.77051Z" fill="#3998FF"/>
<path d="M27.7979 8.77051V23.0251C27.7979 25.4877 25.5687 27.4838 22.821 27.4838C21.905 27.4838 21.1602 28.1509 21.1602 28.97V14.8889C21.1602 12.5132 22.4954 10.7503 25.9605 10.5876C26.8488 10.5767 27.4227 10.3055 27.5772 9.60582L27.7923 8.77593L27.7979 8.77051Z" fill="#3998FF"/>
<path d="M44.0322 8.77051V23.0251C44.0322 25.4877 41.8031 27.4838 39.0553 27.4838C38.1394 27.4838 37.3945 28.1509 37.3945 28.97V14.8889C37.3945 12.5132 38.7298 10.7503 42.1949 10.5876C43.0832 10.5767 43.657 10.3055 43.8115 9.60582L44.0267 8.77593L44.0322 8.77051Z" fill="#3998FF"/>
<path d="M3.02918 18.6803C4.70215 18.6803 6.05836 17.3471 6.05836 15.7025C6.05836 14.0578 4.70215 12.7246 3.02918 12.7246C1.35621 12.7246 0 14.0578 0 15.7025C0 17.3471 1.35621 18.6803 3.02918 18.6803Z" fill="#3998FF"/>
<path d="M28.2224 31.4007C28.2224 33.0442 26.8651 34.3786 25.1932 34.3786C23.5214 34.3786 22.1641 33.0442 22.1641 31.4007C22.1641 29.7572 23.5214 28.4229 25.1932 28.4229C26.8651 28.4229 28.2224 29.7572 28.2224 31.4007Z" fill="#3998FF"/>
<path d="M0.148438 15.7028V15.5618C0.148438 11.8245 3.22176 8.79785 7.01237 8.79785H15.984H16.4365C19.107 8.79785 21.3196 10.9295 21.3196 13.5602V18.2521" stroke="#3998FF" stroke-width="0.5" stroke-miterlimit="10"/>
<path d="M36.8846 5.9557C38.5576 5.9557 39.9138 4.62247 39.9138 2.97785C39.9138 1.33323 38.5576 0 36.8846 0C35.2117 0 33.8555 1.33323 33.8555 2.97785C33.8555 4.62247 35.2117 5.9557 36.8846 5.9557Z" fill="#3998FF"/>
<path d="M36.8867 0.146484H37.0302C40.8318 0.146484 43.9107 3.16773 43.9107 6.89411V16.1531C43.9107 18.7784 41.7422 20.9535 39.0662 20.9535" stroke="#3998FF" stroke-width="0.5" stroke-miterlimit="10"/>
<path d="M25.3768 8.79785H29.2612C31.7994 8.79785 33.8629 10.9295 33.8629 13.5548V29.6808C33.8629 33.0763 31.1759 35.8534 27.8984 35.8534H27.0873C24.4775 35.8534 22.3477 33.6458 22.3477 30.9446" stroke="#3998FF" stroke-width="0.5" stroke-miterlimit="10"/>
<path d="M111.945 13.2679C111.945 11.6244 113.303 10.29 114.974 10.29C116.646 10.29 118.004 11.6244 118.004 13.2679C118.004 14.9114 116.646 16.2457 114.974 16.2457C113.303 16.2457 111.945 14.9114 111.945 13.2679Z" fill="#3998FF"/>
<path d="M106.309 28.9652V14.9764C106.309 11.5809 108.996 8.80371 112.273 8.80371H113.084C115.694 8.80371 117.824 11.0113 117.824 13.7126" stroke="#3998FF" stroke-width="0.5" stroke-miterlimit="10"/>
<path d="M35.8164 28.9648H44.9757" stroke="#3998FF" stroke-width="0.5" stroke-miterlimit="10"/>
<path d="M86.5547 28.9648H94.0532" stroke="#3998FF" stroke-width="0.5" stroke-miterlimit="10"/>
<path d="M53.4102 28.9648H60.8038" stroke="#3998FF" stroke-width="0.5" stroke-miterlimit="10"/>
<path d="M46.5977 10.4307H55.7514" stroke="#3998FF" stroke-width="0.5" stroke-miterlimit="10"/>
<path d="M51.2589 10.4307L60.6168 28.9649H53.4108L47.1925 16.4786C46.6407 15.0086 47.4242 13.3814 48.9305 12.8661L49.9513 12.519C50.8396 12.2152 51.3859 11.3419 51.2589 10.4307Z" fill="#3998FF"/>
<path d="M60.668 28.9215L66.7649 10.4307" stroke="#3998FF" stroke-width="0.5" stroke-miterlimit="10"/>
<path d="M62.3008 10.4736H68.8833" stroke="#3998FF" stroke-width="0.5" stroke-miterlimit="10"/>
<path d="M66.7191 10.4307H64.3906C65.1245 10.8212 65.6266 11.5263 65.7535 12.34L65.8583 13.0397" fill="#3998FF"/>
<path d="M86.5547 10.5986H96.9278" stroke="#3998FF" stroke-width="0.5" stroke-miterlimit="10"/>
<path d="M90.2738 10.5557H88.6406C89.3745 10.9462 89.9649 11.6513 90.0862 12.465L90.1911 13.1647" fill="#3998FF"/>
<path d="M80.2799 27.0935C74.9113 27.0935 74.4423 21.7616 74.4423 20.0475H86.7024C86.7024 20.0475 87.4473 10.3438 77.4549 10.3438C67.4625 10.3438 66.7617 18.3552 66.7617 19.7438C66.7617 21.1324 67.7825 29.0624 77.1459 29.0624C85.6099 29.0624 86.719 22.5155 86.719 22.5155C86.719 22.5155 85.3727 27.0989 80.2799 27.0989V27.0935ZM77.4107 10.5553C80.8703 10.7668 80.3185 19.8414 80.3185 19.8414H74.503C74.503 19.8414 73.9512 10.7668 77.4107 10.5553Z" fill="#3998FF"/>
<path d="M106.307 28.9652H99.7081L90.3281 10.5557H96.9272L106.307 28.9652Z" fill="#3998FF"/>
<path d="M90.3281 10.5557V28.9652" stroke="#3998FF" stroke-width="0.5" stroke-miterlimit="10"/>
</g>
<defs>
<clipPath id="clip0_168_53">
<rect width="118" height="36" fill="white"/>
</clipPath>
</defs>
</svg>
