<svg width="13" height="13" viewBox="0 0 13 13" fill="none" xmlns="http://www.w3.org/2000/svg">
<path d="M12.8997 12.4157C12.9639 12.4799 13 12.5669 13 12.6577C13 12.7485 12.9639 12.8356 12.8997 12.8997C12.8356 12.9639 12.7485 13 12.6577 13C12.5669 13 12.4799 12.9639 12.4157 12.8997L6.5 6.98407L0.584318 12.8997C0.520127 12.9639 0.433065 13 0.342285 13C0.251506 13 0.164444 12.9639 0.100253 12.8997C0.0360622 12.8356 1.78948e-09 12.7485 0 12.6577C-1.78949e-09 12.5669 0.0360619 12.4799 0.100253 12.4157L6.01593 6.5L0.100253 0.584318C0.0360619 0.520127 0 0.433065 0 0.342285C0 0.251506 0.0360619 0.164444 0.100253 0.100253C0.164444 0.0360619 0.251506 0 0.342285 0C0.433065 0 0.520127 0.0360619 0.584318 0.100253L6.5 6.01593L12.4157 0.100253C12.4475 0.0684687 12.4852 0.0432562 12.5267 0.0260548C12.5683 0.00885332 12.6128 8.86064e-10 12.6577 0C12.7027 -8.86062e-10 12.7472 0.00885332 12.7887 0.0260548C12.8302 0.0432562 12.868 0.0684688 12.8997 0.100253C12.9315 0.132037 12.9567 0.16977 12.9739 0.211298C12.9911 0.252826 13 0.297336 13 0.342285C13 0.387235 12.9911 0.431744 12.9739 0.473272C12.9567 0.5148 12.9315 0.552534 12.8997 0.584318L6.98407 6.5L12.8997 12.4157Z" fill="#3998FF" fill-opacity="0.52"/>
</svg>

